<?xml version="1.0" encoding="UTF-8"?>
<svg version="1.1" xmlns="http://www.w3.org/2000/svg" width="224" height="160">
<path d="M0 0 C1.4239785 -0.01441132 1.4239785 -0.01441132 2.87672424 -0.02911377 C4.43422646 -0.03548859 4.43422646 -0.03548859 6.02319336 -0.04199219 C7.62885414 -0.0505423 7.62885414 -0.0505423 9.26695251 -0.05926514 C11.5477499 -0.06874255 13.82856116 -0.07525992 16.109375 -0.07910156 C19.54640079 -0.08868145 22.98279577 -0.11962457 26.41967773 -0.15136719 C46.77794927 -0.24958875 66.86907659 1.10375956 83.55053711 14.16113281 C85.97938101 16.63028948 87.81266949 19.17155347 89.55053711 22.16113281 C89.96174805 22.86109375 90.37295898 23.56105469 90.79663086 24.28222656 C94.51520828 31.50064156 94.72169777 38.15409028 92.45678711 45.90332031 C91.03592055 50.07370412 89.52255762 54.2170918 87.55053711 58.16113281 C88.75967773 58.23589844 89.96881836 58.31066406 91.21459961 58.38769531 C103.42121266 59.30472384 114.1272864 61.30807453 124.36303711 68.59863281 C127.0751379 71.77566517 127.38896719 74.04109994 127.55053711 78.16113281 C128.66428711 78.25394531 128.66428711 78.25394531 129.80053711 78.34863281 C133.48299419 79.43663149 134.49004673 80.96382016 136.55053711 84.16113281 C138.73186191 89.17817984 139.69900885 94.04385236 137.75756836 99.31347656 C136.01217756 103.01156512 135.03985956 104.83491784 131.55053711 107.16113281 C130.56053711 106.83113281 129.57053711 106.50113281 128.55053711 106.16113281 C128.88053711 105.60425781 129.21053711 105.04738281 129.55053711 104.47363281 C130.7491631 101.70181022 131.07312157 100.14732973 130.55053711 97.16113281 C128.37549294 94.38607646 126.61116097 93.32994594 123.12084961 92.77441406 C112.55252532 92.34030442 104.39345854 96.35226796 96.55053711 103.16113281 C95.9047168 103.71285156 95.25889648 104.26457031 94.59350586 104.83300781 C86.29607134 112.49217814 77.61866992 124.41716996 76.05053711 135.78613281 C73.96315166 140.48275007 71.09573109 141.24712475 66.47241211 143.11816406 C65.50819336 143.46234375 64.54397461 143.80652344 63.55053711 144.16113281 C62.66430664 144.50337891 61.77807617 144.845625 60.86499023 145.19824219 C57.07600117 146.29899152 53.51030232 146.52899803 49.59741211 146.61035156 C48.85597961 146.63208939 48.11454712 146.65382721 47.35064697 146.67622375 C45.79434621 146.7198987 44.23791565 146.75915163 42.68139648 146.79418945 C40.29359498 146.84879156 37.90661251 146.91893456 35.51928711 146.99121094 C34.0036863 147.03183704 32.48806155 147.07158188 30.97241211 147.11035156 C29.90056671 147.141493 29.90056671 147.141493 28.80706787 147.17326355 C23.78213614 147.27693233 23.78213614 147.27693233 21.55053711 146.16113281 C22.02698424 141.83255991 24.58924923 139.78923533 27.61303711 136.84863281 C28.11399902 136.35935303 28.61496094 135.87007324 29.13110352 135.3659668 C32.44134296 132.15695306 35.83839666 129.07528291 39.34741211 126.08691406 C41.6256827 124.09544704 43.82763509 122.03190471 46.03027344 119.95751953 C51.79866183 114.53579938 57.73511562 109.49546755 64.05688477 104.7265625 C66.7683895 102.66341007 68.63967197 101.02743052 70.55053711 98.16113281 C69.84928711 98.3196875 69.14803711 98.47824219 68.42553711 98.64160156 C62.45336834 99.72081141 55.95169869 100.5117862 50.55053711 97.47363281 C49.89053711 96.71050781 49.23053711 95.94738281 48.55053711 95.16113281 C47.78741211 94.33613281 47.02428711 93.51113281 46.23803711 92.66113281 C44.55053711 90.16113281 44.55053711 90.16113281 44.55053711 86.16113281 C45.17508789 86.14131348 45.79963867 86.12149414 46.44311523 86.10107422 C49.31263092 86.0049635 52.18150258 85.89563795 55.05053711 85.78613281 C56.03280273 85.75519531 57.01506836 85.72425781 58.02709961 85.69238281 C63.82023429 85.46065743 68.98305203 84.79161059 74.55053711 83.16113281 C71.69028147 81.731005 69.23268507 82.05159599 66.03881836 82.05566406 C64.72333008 82.04083984 63.4078418 82.02601562 62.05249023 82.01074219 C59.96317604 81.98799769 57.87555306 81.97355778 55.78613281 81.98608398 C42.68567738 82.0436992 42.68567738 82.0436992 38.21850586 78.27050781 C36.73876953 76.6953125 36.73876953 76.6953125 35.55053711 75.16113281 C34.89053711 74.31550781 34.23053711 73.46988281 33.55053711 72.59863281 C32.33797367 69.64300943 32.82130696 68.20465585 33.55053711 65.16113281 C34.50420166 65.13607666 35.45786621 65.11102051 36.44042969 65.08520508 C39.97962818 64.99101211 43.51863586 64.8908205 47.05761719 64.78881836 C48.58914729 64.74551448 50.12072426 64.70383614 51.65234375 64.66381836 C53.85422893 64.60600549 56.05587922 64.54234312 58.25756836 64.47753906 C58.94204544 64.46082657 59.62652252 64.44411407 60.33174133 64.42689514 C63.32173815 64.33377731 65.69116022 64.11425844 68.55053711 63.16113281 C66.14332695 61.95752773 64.68424706 62.06104002 61.99975586 62.09863281 C61.07928467 62.10725342 60.15881348 62.11587402 59.21044922 62.12475586 C58.22955322 62.13676025 57.24865723 62.14876465 56.23803711 62.16113281 C32.41308877 62.27887743 32.41308877 62.27887743 26.55053711 58.16113281 C22.42935826 53.45121413 20.26804744 50.51715044 20.55053711 44.16113281 C21.44808716 44.13140381 21.44808716 44.13140381 22.36376953 44.10107422 C25.15552995 44.0040208 27.94671717 43.89509781 30.73803711 43.78613281 C31.6784082 43.75519531 32.6187793 43.72425781 33.58764648 43.69238281 C41.0131451 43.39032863 48.22835025 42.41400926 55.55053711 41.16113281 C54.46111816 41.18208008 53.37169922 41.20302734 52.24926758 41.22460938 C48.19032033 41.29725146 44.13143005 41.34302 40.07202148 41.38085938 C38.31834231 41.40091991 36.56472958 41.42817532 34.8112793 41.46289062 C32.28409393 41.51165584 29.7577962 41.53415673 27.23022461 41.55175781 C26.45186249 41.57240295 25.67350037 41.5930481 24.87155151 41.61431885 C19.6314269 41.61645735 16.72386169 40.60149368 12.55053711 37.16113281 C10.83569336 34.94238281 10.83569336 34.94238281 9.61303711 32.66113281 C9.19151367 31.90832031 8.76999023 31.15550781 8.33569336 30.37988281 C7.42054566 27.7937938 7.79286422 26.72960684 8.55053711 24.16113281 C9.40284912 24.10578369 10.25516113 24.05043457 11.13330078 23.9934082 C14.31105453 23.78545305 17.48859216 23.57450994 20.66601562 23.36157227 C22.03833281 23.27021381 23.41072865 23.18002872 24.78320312 23.09106445 C26.7618429 22.96259999 28.74017951 22.82949308 30.71850586 22.69628906 C31.90726318 22.61773682 33.09602051 22.53918457 34.32080078 22.45825195 C37.13492788 22.19936673 39.79674747 21.78090575 42.55053711 21.16113281 C41.65858643 21.17684326 40.76663574 21.19255371 39.84765625 21.20874023 C36.49847452 21.26025273 33.14972145 21.29766728 29.80029297 21.32592773 C28.35816756 21.34089789 26.91608675 21.36128149 25.47412109 21.38745117 C6.71471872 21.71907319 6.71471872 21.71907319 1.01611328 16.85009766 C-2.43316661 12.98685392 -5.23694924 8.55191142 -5.69946289 3.34863281 C-5.25240403 -0.56313223 -3.53337772 0.02879796 0 0 Z M109.55053711 73.16113281 C110.57231866 75.94200418 111.16750012 76.9689673 113.86303711 78.32128906 C114.74991211 78.6190625 115.63678711 78.91683594 116.55053711 79.22363281 C121.34027428 80.84573857 121.34027428 80.84573857 123.55053711 84.16113281 C123.88053711 82.18113281 124.21053711 80.20113281 124.55053711 78.16113281 C123.97045898 77.96777344 123.39038086 77.77441406 122.79272461 77.57519531 C118.37866211 76.10384115 113.96459961 74.63248698 109.55053711 73.16113281 Z " fill="#7A0A11" transform="translate(12.449462890625,12.8388671875)"/>
<path d="M0 0 C3.45982324 0.03110023 6.91971492 0.04447726 10.37963867 0.05950928 C17.12654808 0.09135193 23.87319072 0.14231801 30.61987305 0.20599365 C29.97977684 4.43230253 29.19870475 7.60846061 27.05737305 11.33099365 C26.60233398 12.15857178 26.14729492 12.9861499 25.6784668 13.83880615 C21.91570917 18.16562042 18.04374602 19.90610697 12.34814453 20.61077881 C8.59942174 20.82179713 4.8745884 20.91330663 1.11987305 20.95599365 C-3.33512695 21.03849365 -7.79012695 21.12099365 -12.38012695 21.20599365 C-2.81012695 21.86599365 6.75987305 22.52599365 16.61987305 23.20599365 C15.53572437 30.79503438 14.519741 32.65976813 9.05737305 37.45599365 C5.25878835 40.18318266 2.20130674 40.36662762 -2.3605957 40.5223999 C-3.52397461 40.56429443 -4.68735352 40.60618896 -5.88598633 40.64935303 C-7.10092773 40.68866943 -8.31586914 40.72798584 -9.56762695 40.76849365 C-10.79416992 40.81167725 -12.02071289 40.85486084 -13.28442383 40.89935303 C-16.31621076 41.00552455 -19.3480801 41.10757318 -22.38012695 41.20599365 C-13.61520046 43.19318347 -5.43066861 44.71402822 3.61987305 44.20599365 C4.34643555 46.4130249 4.34643555 46.4130249 4.61987305 49.20599365 C3.14331055 51.5927124 3.14331055 51.5927124 0.99487305 53.89349365 C-0.04540039 55.04398193 -0.04540039 55.04398193 -1.10668945 56.2177124 C-7.09399128 61.45402963 -14.2585487 60.59743287 -21.80786133 60.7723999 C-22.71987305 60.80204834 -23.63188477 60.83169678 -24.5715332 60.86224365 C-25.39854736 60.88093506 -26.22556152 60.89962646 -27.07763672 60.91888428 C-29.5604351 61.2284772 -31.224707 61.96494737 -33.38012695 63.20599365 C-25.40522567 64.53514387 -17.43825976 64.29400724 -9.38012695 64.20599365 C-8.38012695 67.20599365 -8.38012695 67.20599365 -9.20043945 69.1083374 C-14.43722038 77.27708849 -21.73961178 82.01082148 -30.38012695 86.20599365 C-33.46639765 83.67084273 -34.86659086 81.27996778 -36.31762695 77.64349365 C-38.01362003 73.52082272 -39.52443442 72.4382367 -43.38012695 70.20599365 C-44.07369118 67.88051358 -44.74161908 65.5471892 -45.38012695 63.20599365 C-47.14979662 62.08557467 -47.14979662 62.08557467 -49.38012695 61.20599365 C-50.20125977 60.76642334 -51.02239258 60.32685303 -51.8684082 59.8739624 C-59.80729266 55.71236184 -67.84745681 52.84039727 -76.38012695 50.20599365 C-77.30732293 39.14145501 -75.04391637 27.95044991 -68.63012695 18.70599365 C-51.35099773 -1.46028121 -24.20153811 -0.24100216 0 0 Z " fill="#292732" transform="translate(188.380126953125,13.79400634765625)"/>
<path d="M0 0 C2.16796875 2.08984375 2.16796875 2.08984375 4.1875 4.9375 C7.10147997 9.02396895 10.07191122 11.96813036 14.0078125 15.10546875 C20.08538972 19.95989218 25.59842648 25.25994996 31.08374023 30.76806641 C32.71538277 32.40293795 34.36015703 34.0238263 36.00585938 35.64453125 C37.05028667 36.68669137 38.0939376 37.72963026 39.13671875 38.7734375 C39.62718185 39.25469086 40.11764496 39.73594421 40.62297058 40.23178101 C44 43.65608035 44 43.65608035 44 47 C39.21284377 47.07415168 34.42602173 47.12860204 29.63842773 47.16479492 C28.00978777 47.17988243 26.38118844 47.20035506 24.75268555 47.22631836 C22.41184465 47.26270449 20.07154081 47.2797262 17.73046875 47.29296875 C17.00224411 47.30845261 16.27401947 47.32393646 15.52372742 47.33988953 C10.46129289 47.34157527 10.46129289 47.34157527 8.10351562 45.59570312 C7.73935547 45.06912109 7.37519531 44.54253906 7 44 C6.54238281 43.39800781 6.08476562 42.79601562 5.61328125 42.17578125 C5.18402344 41.56089844 4.75476563 40.94601563 4.3125 40.3125 C3.87550781 39.68988281 3.43851563 39.06726563 2.98828125 38.42578125 C2.66214844 37.95527344 2.33601563 37.48476562 2 37 C-1.18559952 38.39633107 -3.23943845 40.04557493 -5.625 42.5625 C-8.80555556 45.90277778 -8.80555556 45.90277778 -11 47 C-12.96128513 47.01630435 -14.9233288 46.96451476 -16.8828125 46.87890625 C-18.04941406 46.83056641 -19.21601562 46.78222656 -20.41796875 46.73242188 C-21.64128906 46.67634766 -22.86460938 46.62027344 -24.125 46.5625 C-25.35605469 46.51029297 -26.58710937 46.45808594 -27.85546875 46.40429688 C-30.90388588 46.2743256 -33.9519995 46.13934981 -37 46 C-37.525722 33.58368342 -29.99529111 20.85759324 -21.84375 11.73046875 C-8.12446856 -1.14589074 -8.12446856 -1.14589074 0 0 Z " fill="#24232D" transform="translate(129,113)"/>
<path d="M0 0 C4.00847373 1.37433385 7.02725496 2.94467871 10 6 C10.8125 9.75 10.8125 9.75 11 13 C11.7425 13.061875 12.485 13.12375 13.25 13.1875 C16.93245708 14.27549868 17.93950962 15.80268735 20 19 C22.1813248 24.01704703 23.14847174 28.88271955 21.20703125 34.15234375 C19.46164045 37.85043231 18.48932245 39.67378503 15 42 C13.515 41.505 13.515 41.505 12 41 C12.495 40.1646875 12.495 40.1646875 13 39.3125 C14.19862599 36.5406774 14.52258446 34.98619691 14 32 C11.82495583 29.22494365 10.06062386 28.16881312 6.5703125 27.61328125 C0.37400074 27.35875853 -4.3940845 28.53999414 -10.00390625 31.125 C-12 32 -12 32 -14 32 C-14 31.01 -14 30.02 -14 29 C-13.360625 28.87625 -12.72125 28.7525 -12.0625 28.625 C-11.381875 28.41875 -10.70125 28.2125 -10 28 C-9.67 27.34 -9.34 26.68 -9 26 C-7.2578125 25.33203125 -7.2578125 25.33203125 -5.125 24.8125 C-4.07699219 24.54373047 -4.07699219 24.54373047 -3.0078125 24.26953125 C-1 24 -1 24 2 25 C2.33 23.35 2.66 21.7 3 20 C2.01 19.67 1.02 19.34 0 19 C-1.1875 15.4375 -1.1875 15.4375 -2 12 C0.64 13.32 3.28 14.64 6 16 C6.33 15.34 6.66 14.68 7 14 C5.205625 13.3503125 5.205625 13.3503125 3.375 12.6875 C-0.21232201 11.3470416 -3.60611779 9.78178816 -7 8 C-6.01 9.65 -5.02 11.3 -4 13 C-5.65 13 -7.3 13 -9 13 C-9 11.02 -9 9.04 -9 7 C-5.66666667 7 -2.33333333 7 1 7 C0.67 6.01 0.34 5.02 0 4 C0.66 4 1.32 4 2 4 C2.33 3.34 2.66 2.68 3 2 C2.01 2.33 1.02 2.66 0 3 C0 2.01 0 1.02 0 0 Z " fill="#A81C21" transform="translate(129,78)"/>
<path d="M0 0 C8.25 0 16.5 0 25 0 C24 8 24 8 22.65234375 9.91796875 C22.08644531 10.33691406 21.52054688 10.75585938 20.9375 11.1875 C20.31101563 11.66058594 19.68453125 12.13367188 19.0390625 12.62109375 C14.48292067 15.70216284 9.94859503 18.58605121 5 21 C3 19.5625 3 19.5625 1 17 C0.64557555 13.97175582 0.76652765 11.03514061 1 8 C0.01 7.67 -0.98 7.34 -2 7 C-1 5 -1 5 2 4 C2.33 3.34 2.66 2.68 3 2 C2.01 1.67 1.02 1.34 0 1 C0 0.67 0 0.34 0 0 Z " fill="#141221" transform="translate(153,79)"/>
<path d="M0 0 C9.24 0 18.48 0 28 0 C28 0.99 28 1.98 28 3 C26.80761719 3.04898438 25.61523438 3.09796875 24.38671875 3.1484375 C22.82028932 3.22347604 21.25388421 3.2990234 19.6875 3.375 C18.90181641 3.4059375 18.11613281 3.436875 17.30664062 3.46875 C16.1706543 3.52675781 16.1706543 3.52675781 15.01171875 3.5859375 C14.31522217 3.6173584 13.61872559 3.6487793 12.90112305 3.68115234 C10.67467261 3.92118253 10.67467261 3.92118253 8 6 C6.78715124 9.05429073 6.78715124 9.05429073 6 12 C7.11375 11.95875 8.2275 11.9175 9.375 11.875 C13 12 13 12 15 14 C17.52037964 14.37135915 17.52037964 14.37135915 20.4453125 14.4140625 C22.05986328 14.47207031 22.05986328 14.47207031 23.70703125 14.53125 C25.39892578 14.57765625 25.39892578 14.57765625 27.125 14.625 C28.82849609 14.68300781 28.82849609 14.68300781 30.56640625 14.7421875 C33.37743956 14.83667601 36.18846233 14.92223541 39 15 C39 15.33 39 15.66 39 16 C34.85585859 16.14930394 30.71317627 16.25765166 26.56713867 16.32958984 C25.15963444 16.35960197 23.75231473 16.40042758 22.34545898 16.45263672 C9.14987228 16.92975471 9.14987228 16.92975471 4.66015625 13.13671875 C3.18383789 11.54956055 3.18383789 11.54956055 2 10 C1.34 9.154375 0.68 8.30875 0 7.4375 C-1 5 -1 5 0 0 Z " fill="#A5676B" transform="translate(46,78)"/>
<path d="M0 0 C4.95 0 9.9 0 15 0 C15 0.33 15 0.66 15 1 C10.38 1 5.76 1 1 1 C1.99 2.65 2.98 4.3 4 6 C4 7.32 4 8.64 4 10 C4.86625 10.12375 4.86625 10.12375 5.75 10.25 C8 11 8 11 9.52832031 13.02246094 C13.35011676 16.0802001 17.0457048 15.49725144 21.796875 15.390625 C23.22003021 15.38213531 23.22003021 15.38213531 24.67193604 15.37347412 C27.69847336 15.35110609 30.72382129 15.30090858 33.75 15.25 C35.8033683 15.22993557 37.85675519 15.2116847 39.91015625 15.1953125 C44.94056156 15.15123981 49.97007921 15.08220891 55 15 C55 15.66 55 16.32 55 17 C54.34 17 53.68 17 53 17 C53 17.66 53 18.32 53 19 C42.91306593 21.92767111 31.41367475 21.14243628 21 21 C21 20.67 21 20.34 21 20 C21.57443848 19.94465088 22.14887695 19.88930176 22.74072266 19.83227539 C25.36902619 19.5778124 27.99701018 19.32018189 30.625 19.0625 C31.52863281 18.97548828 32.43226562 18.88847656 33.36328125 18.79882812 C34.24628906 18.71181641 35.12929688 18.62480469 36.0390625 18.53515625 C36.84553223 18.456604 37.65200195 18.37805176 38.48291016 18.29711914 C41.34080538 17.95977108 44.16496245 17.49171871 47 17 C45.36587158 17.0314209 45.36587158 17.0314209 43.69873047 17.06347656 C39.63978322 17.13611865 35.58089294 17.18188718 31.52148438 17.21972656 C29.76780521 17.2397871 28.01419247 17.26704251 26.26074219 17.30175781 C23.73355682 17.35052302 21.20725909 17.37302392 18.6796875 17.390625 C17.90132538 17.41127014 17.12296326 17.43191528 16.3210144 17.45318604 C11.08088979 17.45532454 8.17332458 16.44036086 4 13 C2.28515625 10.78125 2.28515625 10.78125 1.0625 8.5 C0.64097656 7.7471875 0.21945313 6.994375 -0.21484375 6.21875 C-1 4 -1 4 0 0 Z " fill="#C79495" transform="translate(21,37)"/>
<path d="M0 0 C4.95 0.33 9.9 0.66 15 1 C15 3.64 15 6.28 15 9 C14.360625 9.28875 13.72125 9.5775 13.0625 9.875 C10.84793921 10.82823451 10.84793921 10.82823451 10 13 C10.66 13.33 11.32 13.66 12 14 C11.67 14.66 11.34 15.32 11 16 C7.55155804 15.74455985 6.78313846 14.76248498 4.375 12.125 C0 6.36842105 0 6.36842105 0 0 Z " fill="#901E26" transform="translate(33,57)"/>
<path d="M0 0 C1.4239785 -0.01441132 1.4239785 -0.01441132 2.87672424 -0.02911377 C4.43422646 -0.03548859 4.43422646 -0.03548859 6.02319336 -0.04199219 C7.62885414 -0.0505423 7.62885414 -0.0505423 9.26695251 -0.05926514 C11.5477499 -0.06874255 13.82856116 -0.07525992 16.109375 -0.07910156 C19.54640079 -0.08868145 22.98279577 -0.11962457 26.41967773 -0.15136719 C55.93249376 -0.29427469 55.93249376 -0.29427469 65.55053711 5.16113281 C62.67527642 5.01947951 59.80040175 4.87294749 56.92553711 4.72363281 C56.11729492 4.68431641 55.30905273 4.645 54.47631836 4.60449219 C53.68354492 4.56259766 52.89077148 4.52070313 52.07397461 4.47753906 C51.35129395 4.44088135 50.62861328 4.40422363 49.8840332 4.36645508 C47.55053711 4.16113281 47.55053711 4.16113281 44.91967773 3.66113281 C40.31919811 2.97839497 35.76609969 2.9261589 31.12084961 2.84472656 C29.6353511 2.81355492 29.6353511 2.81355492 28.11984253 2.78175354 C24.97180793 2.71662961 21.82369344 2.65754652 18.67553711 2.59863281 C16.53490401 2.55541223 14.39427885 2.51179682 12.25366211 2.46777344 C7.01937035 2.36098654 1.78499999 2.2591527 -3.44946289 2.16113281 C-3.44946289 3.81113281 -3.44946289 5.46113281 -3.44946289 7.16113281 C-4.10946289 6.83113281 -4.76946289 6.50113281 -5.44946289 6.16113281 C-5.49218389 4.49501376 -5.49010121 2.82730396 -5.44946289 1.16113281 C-3.85856229 -0.42976779 -2.20564454 0.01797658 0 0 Z " fill="#C28789" transform="translate(12.449462890625,12.8388671875)"/>
<path d="M0 0 C4.00847373 1.37433385 7.02725496 2.94467871 10 6 C10.8125 9.75 10.8125 9.75 11 13 C11.99 13.33 12.98 13.66 14 14 C13.030625 14.268125 12.06125 14.53625 11.0625 14.8125 C10.051875 15.204375 9.04125 15.59625 8 16 C7.67 16.99 7.34 17.98 7 19 C7 17.35 7 15.7 7 14 C5.205625 13.3503125 5.205625 13.3503125 3.375 12.6875 C-0.21232201 11.3470416 -3.60611779 9.78178816 -7 8 C-6.01 9.65 -5.02 11.3 -4 13 C-5.65 13 -7.3 13 -9 13 C-9 11.02 -9 9.04 -9 7 C-5.66666667 7 -2.33333333 7 1 7 C0.67 6.01 0.34 5.02 0 4 C0.66 4 1.32 4 2 4 C2.33 3.34 2.66 2.68 3 2 C2.01 2.33 1.02 2.66 0 3 C0 2.01 0 1.02 0 0 Z " fill="#A11A1E" transform="translate(129,78)"/>
<path d="M0 0 C0.66 0.33 1.32 0.66 2 1 C1.21654285 2.17219543 0.42297164 3.33763668 -0.375 4.5 C-0.81585938 5.1496875 -1.25671875 5.799375 -1.7109375 6.46875 C-2.13632812 6.9740625 -2.56171875 7.479375 -3 8 C-3.66 8 -4.32 8 -5 8 C-5.66 9.32 -6.32 10.64 -7 12 C-1.39 12 4.22 12 10 12 C10 12.66 10 13.32 10 14 C14.62 14 19.24 14 24 14 C24 14.33 24 14.66 24 15 C19.19470128 15.16746774 14.38924097 15.32804214 9.58349609 15.48217773 C7.94801607 15.53561099 6.31259689 15.5909414 4.67724609 15.64819336 C2.32923506 15.73006761 -0.0189089 15.80515983 -2.3671875 15.87890625 C-3.10057343 15.90594131 -3.83395935 15.93297638 -4.58956909 15.96083069 C-9.77225659 16.11387171 -9.77225659 16.11387171 -12 15 C-11.58685438 10.55073948 -8.49538473 8.15899896 -5.4375 5.25 C-4.91736328 4.74339844 -4.39722656 4.23679688 -3.86132812 3.71484375 C-2.58089916 2.46965595 -1.29132446 1.23388498 0 0 Z " fill="#974C51" transform="translate(46,144)"/>
<path d="M0 0 C-3.41376225 3.41376225 -6.80055917 3.17015346 -11.41796875 3.31640625 C-12.67158203 3.35830078 -13.92519531 3.40019531 -15.21679688 3.44335938 C-16.52712891 3.48267578 -17.83746094 3.52199219 -19.1875 3.5625 C-20.52279978 3.60570992 -21.85808652 3.649325 -23.19335938 3.69335938 C-26.46213297 3.79956502 -29.73098333 3.90160997 -33 4 C-33 4.33 -33 4.66 -33 5 C-39.20104812 5.27560214 -44.93184478 4.22899346 -51 3 C-51 2.34 -51 1.68 -51 1 C-44.54046276 0.85681665 -38.08090706 0.71448936 -31.62133789 0.57275391 C-29.42439345 0.52444804 -27.22745329 0.47594704 -25.03051758 0.42724609 C-21.87061656 0.35723246 -18.71070076 0.28792321 -15.55078125 0.21875 C-14.57039383 0.19687622 -13.59000641 0.17500244 -12.57991028 0.15246582 C-11.65933334 0.13244507 -10.73875641 0.11242432 -9.7902832 0.09179688 C-8.9842012 0.07403198 -8.1781192 0.05626709 -7.34761047 0.03796387 C-4.89799899 -0.00164949 -2.44988819 -0.00638722 0 0 Z " fill="#8E8D92" transform="translate(209,31)"/>
<path d="M0 0 C0.8971875 0.309375 0.8971875 0.309375 1.8125 0.625 C1.16023438 1.19347656 0.50796875 1.76195313 -0.1640625 2.34765625 C-5.25635149 6.84659593 -9.91483637 11.34038972 -14.1875 16.625 C-15.75 14.875 -15.75 14.875 -17.1875 12.625 C-17 10.6875 -17 10.6875 -16.1875 8.625 C-15.89875 7.75875 -15.61 6.8925 -15.3125 6 C-14.1875 3.625 -14.1875 3.625 -11.1875 1.625 C-8 2.5 -8 2.5 -5.1875 3.625 C-5.1875 2.965 -5.1875 2.305 -5.1875 1.625 C-2.1875 -0.375 -2.1875 -0.375 0 0 Z " fill="#821822" transform="translate(113.1875,110.375)"/>
<path d="M0 0 C23.265 0.495 23.265 0.495 47 1 C46.34 2.32 45.68 3.64 45 5 C42.525 4.505 42.525 4.505 40 4 C40 4.66 40 5.32 40 6 C32.87028851 7.25818438 26.18050184 6.71148265 19 6 C19 5.67 19 5.34 19 5 C19.95261719 4.93941406 20.90523437 4.87882812 21.88671875 4.81640625 C23.76810547 4.69072266 23.76810547 4.69072266 25.6875 4.5625 C26.92886719 4.48128906 28.17023437 4.40007813 29.44921875 4.31640625 C32.38836617 4.05450202 35.12115221 3.60686889 38 3 C36.64636353 3.01571045 36.64636353 3.01571045 35.26538086 3.03173828 C31.89019167 3.06599536 28.51518955 3.09098367 25.13989258 3.10986328 C23.68413359 3.1198685 22.22839443 3.13347696 20.77270508 3.15087891 C18.6700346 3.17537044 16.56763176 3.18653794 14.46484375 3.1953125 C13.202771 3.20578613 11.94069824 3.21625977 10.64038086 3.22705078 C6.74102471 2.9838477 3.69671244 2.20377453 0 1 C0 0.67 0 0.34 0 0 Z " fill="#C79498" transform="translate(17,31)"/>
<path d="M0 0 C0.66 0.33 1.32 0.66 2 1 C1.56042969 1.70511719 1.12085937 2.41023438 0.66796875 3.13671875 C-0.98270558 5.97031192 -2.35290765 8.81868473 -3.6875 11.8125 C-4.12449219 12.78832031 -4.56148437 13.76414063 -5.01171875 14.76953125 C-5.33785156 15.50558594 -5.66398437 16.24164063 -6 17 C-7.65 16.67 -9.3 16.34 -11 16 C-11 16.99 -11 17.98 -11 19 C-12.32 19 -13.64 19 -15 19 C-12.1522881 11.07107667 -6.64534077 5.02452595 0 0 Z " fill="#505256" transform="translate(114,119)"/>
<path d="M0 0 C9.9 0 19.8 0 30 0 C30 0.33 30 0.66 30 1 C27.10425766 1.16839208 24.20842326 1.33477385 21.3125 1.5 C20.08756836 1.57154297 20.08756836 1.57154297 18.83789062 1.64453125 C18.04189453 1.68964844 17.24589844 1.73476563 16.42578125 1.78125 C15.65596924 1.82507813 14.88615723 1.86890625 14.09301758 1.9140625 C12.40718015 1.98328153 10.71766721 1.95950528 9.03125 1.90625 C8.3609375 1.9371875 7.690625 1.968125 7 2 C5.15684329 3.9004467 5.15684329 3.9004467 4 6 C4.66 6.33 5.32 6.66 6 7 C6 8.98 6 10.96 6 13 C7.32 13.33 8.64 13.66 10 14 C9.34 14 8.68 14 8 14 C8 14.66 8 15.32 8 16 C4.22481125 14.78654647 2.74908183 12.45329977 0.734375 9.14453125 C0 7 0 7 0 0 Z " fill="#9E1E24" transform="translate(9,15)"/>
<path d="M0 0 C3.3 0 6.6 0 10 0 C9.34 0.66 8.68 1.32 8 2 C6.25372522 4.61941217 5.61277612 6.03824877 5 9 C6.11375 8.95875 7.2275 8.9175 8.375 8.875 C12 9 12 9 14 11 C16.52037964 11.37135915 16.52037964 11.37135915 19.4453125 11.4140625 C21.05986328 11.47207031 21.05986328 11.47207031 22.70703125 11.53125 C24.39892578 11.57765625 24.39892578 11.57765625 26.125 11.625 C27.82849609 11.68300781 27.82849609 11.68300781 29.56640625 11.7421875 C32.37743956 11.83667601 35.18846233 11.92223541 38 12 C38 12.33 38 12.66 38 13 C33.81915709 13.09922585 29.63894629 13.17163374 25.45727539 13.21972656 C24.03625543 13.23978421 22.61531741 13.26703778 21.19458008 13.30175781 C19.14644105 13.35054011 17.09939725 13.37302539 15.05078125 13.390625 C13.20480347 13.4220459 13.20480347 13.4220459 11.3215332 13.45410156 C7.3859393 12.91604903 5.78522161 11.77500998 3 9 C1.56965081 6.05143033 0.8883435 3.17933463 0 0 Z " fill="#9A434A" transform="translate(47,81)"/>
<path d="M0 0 C2.9873809 4.48107135 3.43696371 7.66904277 3 13 C1.38798183 17.42107952 -0.0368607 20.35790713 -4 23 C-4.99 22.67 -5.98 22.34 -7 22 C-6.67 21.443125 -6.34 20.88625 -6 20.3125 C-4.82427997 17.59364743 -4.63298594 15.93611246 -5 13 C-6.39957197 10.71515694 -6.39957197 10.71515694 -8 9 C-6.35 9 -4.7 9 -3 9 C-2.34 10.32 -1.68 11.64 -1 13 C0.32229189 10.35541621 0.09677194 8.32238699 0.0625 5.375 C0.04896484 3.87066406 0.04896484 3.87066406 0.03515625 2.3359375 C0.02355469 1.56507812 0.01195312 0.79421875 0 0 Z " fill="#BA5D61" transform="translate(148,97)"/>
<path d="M0 0 C0.33 0.66 0.66 1.32 1 2 C0.0625 4.125 0.0625 4.125 -1 6 C-1.66 6 -2.32 6 -3 6 C-3 6.66 -3 7.32 -3 8 C-3.61875 8.226875 -4.2375 8.45375 -4.875 8.6875 C-7.23485153 9.81668759 -7.23485153 9.81668759 -7.6875 12.375 C-9.54145209 16.08290418 -12.08887614 16.75038824 -15.80859375 18.30078125 C-18 19 -18 19 -21 19 C-6.78640777 4.52427184 -6.78640777 4.52427184 0 0 Z " fill="#964A51" transform="translate(69,124)"/>
<path d="M0 0 C0.33 0.66 0.66 1.32 1 2 C0.67 2.66 0.34 3.32 0 4 C1.90072266 4.14695312 1.90072266 4.14695312 3.83984375 4.296875 C20.44387415 5.72294763 20.44387415 5.72294763 28 10 C25.12062561 10.87980884 24.21122875 11.0720098 21.25 10.0625 C16.97442789 8.66471681 12.17574819 7.9121259 8 10 C8 9.34 8 8.68 8 8 C7.28972656 7.95101562 6.57945313 7.90203125 5.84765625 7.8515625 C4.92855469 7.77679688 4.00945312 7.70203125 3.0625 7.625 C1.68771484 7.52058594 1.68771484 7.52058594 0.28515625 7.4140625 C-0.84599609 7.20910156 -0.84599609 7.20910156 -2 7 C-3 5 -3 5 -2.6875 2.9375 C-2 1 -2 1 0 0 Z " fill="#A1585E" transform="translate(100,67)"/>
<path d="M0 0 C1.13732426 3.40401948 0.83989957 5.77456664 0.0625 9.25 C-0.13214844 10.14203125 -0.32679687 11.0340625 -0.52734375 11.953125 C-0.68332031 12.62859375 -0.83929688 13.3040625 -1 14 C1.97 15.98 1.97 15.98 5 18 C4.67 19.32 4.34 20.64 4 22 C6.31 22.33 8.62 22.66 11 23 C11 23.99 11 24.98 11 26 C9.60301364 25.71390693 8.2074567 25.42083095 6.8125 25.125 C5.64654297 24.88136719 5.64654297 24.88136719 4.45703125 24.6328125 C1.8594488 23.9638008 -0.53161138 23.04347512 -3 22 C-3.36801906 14.06714481 -2.77476512 7.4654395 0 0 Z " fill="#898889" transform="translate(115,42)"/>
<path d="M0 0 C1.875 0.5625 1.875 0.5625 4 2 C5.84110698 6.6948228 6.4828406 10.97845781 6 16 C4.48046875 17.703125 4.48046875 17.703125 3 19 C2.49166409 17.75336669 1.99368855 16.50250613 1.5 15.25 C1.2215625 14.55390625 0.943125 13.8578125 0.65625 13.140625 C-0.25888513 10.15554136 -0.41365297 7.82730594 1 5 C0.72057545 3.32345271 0.39171753 1.65391846 0 0 Z " fill="#B21E22" transform="translate(143,92)"/>
<path d="M0 0 C1.03404779 3.69302781 1.44366171 7.105632 2 11 C9.59 11.33 17.18 11.66 25 12 C25 10.68 25 9.36 25 8 C26.32 8.66 27.64 9.32 29 10 C26.33377412 12.50888191 24.73335355 13.91006556 21.0456543 14.36230469 C19.4510437 14.26804199 19.4510437 14.26804199 17.82421875 14.171875 C16.66728516 14.11386719 15.51035156 14.05585938 14.31835938 13.99609375 C12.52108398 13.87427734 12.52108398 13.87427734 10.6875 13.75 C8.8612207 13.65138672 8.8612207 13.65138672 6.99804688 13.55078125 C3.99709575 13.38602315 0.99865096 13.20179262 -2 13 C-2.09200044 8.16422707 -1.76722161 4.52850538 0 0 Z " fill="#8B8B8F" transform="translate(94,146)"/>
<path d="M0 0 C0 0.33 0 0.66 0 1 C-0.72445312 1.06316406 -1.44890625 1.12632813 -2.1953125 1.19140625 C-7.50641369 1.86414573 -11.08331738 2.33024838 -14.5625 6.625 C-14.99691406 7.25664063 -15.43132813 7.88828125 -15.87890625 8.5390625 C-16.24886719 9.02117188 -16.61882813 9.50328125 -17 10 C-17.66 10 -18.32 10 -19 10 C-20.24162641 7.02009661 -21.25561083 4.1385057 -22 1 C-14.65623924 0.42240084 -7.36901413 -0.14738028 0 0 Z " fill="#992128" transform="translate(44,37)"/>
<path d="M0 0 C5.5892934 -0.28420136 8.27268165 -0.15154557 13 3 C15.32873375 3.68255989 17.66182791 4.35050775 20 5 C20.99 5.66 21.98 6.32 23 7 C22.030625 7.268125 21.06125 7.53625 20.0625 7.8125 C19.051875 8.204375 18.04125 8.59625 17 9 C16.67 9.99 16.34 10.98 16 12 C16 10.35 16 8.7 16 7 C14.80375 6.566875 13.6075 6.13375 12.375 5.6875 C8.78767799 4.3470416 5.39388221 2.78178816 2 1 C2.99 2.65 3.98 4.3 5 6 C3.35 6 1.7 6 0 6 C0 4.02 0 2.04 0 0 Z " fill="#B86D72" transform="translate(120,85)"/>
<path d="M0 0 C0.73605469 0.05671875 1.47210938 0.1134375 2.23046875 0.171875 C4.02952468 0.31206118 5.82741939 0.46701786 7.625 0.625 C7.295 1.285 6.965 1.945 6.625 2.625 C3.53283794 3.65572069 1.77158446 3.60834335 -1.4375 3.4375 C-6.74266681 3.35989783 -10.59346959 4.54487079 -15.37890625 6.75 C-17.375 7.625 -17.375 7.625 -19.375 7.625 C-19.375 6.635 -19.375 5.645 -19.375 4.625 C-18.735625 4.50125 -18.09625 4.3775 -17.4375 4.25 C-16.756875 4.04375 -16.07625 3.8375 -15.375 3.625 C-15.045 2.965 -14.715 2.305 -14.375 1.625 C-9.40627653 -0.62239185 -5.27600632 -0.47703493 0 0 Z " fill="#AC585D" transform="translate(134.375,102.375)"/>
<path d="M0 0 C3.63 0 7.26 0 11 0 C11 0.66 11 1.32 11 2 C10.34 2 9.68 2 9 2 C9 2.66 9 3.32 9 4 C-1.08693407 6.92767111 -12.58632525 6.14243628 -23 6 C-23 5.67 -23 5.34 -23 5 C-22.42556152 4.94465088 -21.85112305 4.88930176 -21.25927734 4.83227539 C-18.63097381 4.5778124 -16.00298982 4.32018189 -13.375 4.0625 C-12.47136719 3.97548828 -11.56773438 3.88847656 -10.63671875 3.79882812 C-6.05643346 3.34748614 -1.5301628 2.8352958 3 2 C2.01 1.34 1.02 0.68 0 0 Z " fill="#B68387" transform="translate(65,52)"/>
<path d="M0 0 C1.98 0 3.96 0 6 0 C5.01 0.495 5.01 0.495 4 1 C4 2.32 4 3.64 4 5 C21.325 4.505 21.325 4.505 39 4 C39 4.99 39 5.98 39 7 C34.21284377 7.07415168 29.42602173 7.12860204 24.63842773 7.16479492 C23.00978777 7.17988243 21.38118844 7.20035506 19.75268555 7.22631836 C17.41184465 7.26270449 15.07154081 7.2797262 12.73046875 7.29296875 C11.63813179 7.31619453 11.63813179 7.31619453 10.52372742 7.33988953 C5.47194721 7.34157172 5.47194721 7.34157172 3.09106445 5.6184082 C1.87285096 3.81139606 0.89120195 1.9880659 0 0 Z " fill="#848184" transform="translate(134,153)"/>
<path d="M0 0 C0.66 0 1.32 0 2 0 C2.1875 3.1875 2.1875 3.1875 1 7 C-3.8783577 10.26601914 -10.08639044 12.85215976 -16 13 C-16.99 12.34 -17.98 11.68 -19 11 C-10.57142857 8.71428571 -10.57142857 8.71428571 -6 9 C-5.67 7.68 -5.34 6.36 -5 5 C-3.68 5 -2.36 5 -1 5 C-0.67 3.35 -0.34 1.7 0 0 Z " fill="#8F5455" transform="translate(86,145)"/>
<path d="M0 0 C0.99 0 1.98 0 3 0 C3.33 2.64 3.66 5.28 4 8 C3.236875 7.814375 2.47375 7.62875 1.6875 7.4375 C-1.08967375 6.77180827 -1.08967375 6.77180827 -4 8 C-6.15634036 8 -7.92446352 7.5534764 -10 7 C-10 6.34 -10 5.68 -10 5 C-7.04335481 3.5216774 -4.25770263 3.93967217 -1 4 C-0.67 2.68 -0.34 1.36 0 0 Z " fill="#6D0208" transform="translate(92,94)"/>
<path d="M0 0 C3.96 1.98 3.96 1.98 8 4 C8 4.99 8 5.98 8 7 C8.66 7 9.32 7 10 7 C10 6.01 10 5.02 10 4 C10.99 4.33 11.98 4.66 13 5 C12.67 6.32 12.34 7.64 12 9 C10.3125 9.6875 10.3125 9.6875 8 10 C5.12655367 8.70010761 3.43235929 7.69177486 1.75 5 C1.12998564 3.34662837 0.55839552 1.67518656 0 0 Z " fill="#9C222B" transform="translate(127,90)"/>
<path d="M0 0 C0.66 0.33 1.32 0.66 2 1 C1.21654285 2.17219543 0.42297164 3.33763668 -0.375 4.5 C-0.81585938 5.1496875 -1.25671875 5.799375 -1.7109375 6.46875 C-2.13632812 6.9740625 -2.56171875 7.479375 -3 8 C-3.66 8 -4.32 8 -5 8 C-5.33 8.99 -5.66 9.98 -6 11 C-6.99 11.33 -7.98 11.66 -9 12 C-9.33 12.66 -9.66 13.32 -10 14 C-7.03 14.33 -4.06 14.66 -1 15 C-1 15.33 -1 15.66 -1 16 C-2.45823212 16.0270043 -3.91660675 16.04639787 -5.375 16.0625 C-6.18710937 16.07410156 -6.99921875 16.08570313 -7.8359375 16.09765625 C-10 16 -10 16 -12 15 C-11.58685438 10.55073948 -8.49538473 8.15899896 -5.4375 5.25 C-4.91736328 4.74339844 -4.39722656 4.23679688 -3.86132812 3.71484375 C-2.58089916 2.46965595 -1.29132446 1.23388498 0 0 Z " fill="#BD8185" transform="translate(46,144)"/>
<path d="M0 0 C1.65 0 3.3 0 5 0 C5.33 0.66 5.66 1.32 6 2 C6.66 2 7.32 2 8 2 C7 5 7 5 6 7 C6.66 7 7.32 7 8 7 C7.67 7.66 7.34 8.32 7 9 C3.37 8.34 -0.26 7.68 -4 7 C-2.68 5.68 -1.36 4.36 0 3 C0.66 3.33 1.32 3.66 2 4 C1.34 2.68 0.68 1.36 0 0 Z " fill="#961B21" transform="translate(124,78)"/>
<path d="M0 0 C1.98 0 3.96 0 6 0 C6.33 1.65 6.66 3.3 7 5 C7.66 4.67 8.32 4.34 9 4 C10.54613014 4.08651631 12.08909387 4.24002636 13.625 4.4375 C14.85089844 4.59025391 14.85089844 4.59025391 16.1015625 4.74609375 C17.04128906 4.87177734 17.04128906 4.87177734 18 5 C18 5.66 18 6.32 18 7 C15.72975032 7.08097324 13.45867925 7.13917704 11.1875 7.1875 C9.29064453 7.23970703 9.29064453 7.23970703 7.35546875 7.29296875 C4 7 4 7 2.09375 5.625 C0.84679439 3.77238024 0.37770064 2.1906637 0 0 Z " fill="#6D0F15" transform="translate(65,104)"/>
<path d="M0 0 C0.8971875 0.309375 0.8971875 0.309375 1.8125 0.625 C0.21051112 2.08572532 -1.39417116 3.54349716 -3 5 C-3.89332031 5.81210938 -4.78664063 6.62421875 -5.70703125 7.4609375 C-8.1875 9.625 -8.1875 9.625 -11.1875 11.625 C-11.3125 8.25 -11.3125 8.25 -11.1875 4.625 C-10.5275 3.965 -9.8675 3.305 -9.1875 2.625 C-7.0625 3 -7.0625 3 -5.1875 3.625 C-5.1875 2.965 -5.1875 2.305 -5.1875 1.625 C-2.1875 -0.375 -2.1875 -0.375 0 0 Z " fill="#94474D" transform="translate(113.1875,110.375)"/>
<path d="M0 0 C0.99193359 -0.020625 1.98386719 -0.04125 3.00585938 -0.0625 C3.95138672 -0.06765625 4.89691406 -0.0728125 5.87109375 -0.078125 C6.72501709 -0.0874707 7.57894043 -0.09681641 8.45874023 -0.10644531 C9.50010132 0.06999512 9.50010132 0.06999512 10.5625 0.25 C11.2225 1.24 11.8825 2.23 12.5625 3.25 C1.6725 2.92 -9.2175 2.59 -20.4375 2.25 C-20.4375 1.92 -20.4375 1.59 -20.4375 1.25 C-13.60201518 0.37528368 -6.88893183 0.0368146 0 0 Z " fill="#640C16" transform="translate(78.4375,90.75)"/>
<path d="M0 0 C-0.33 1.32 -0.66 2.64 -1 4 C-1.99 4 -2.98 4 -4 4 C-4 4.66 -4 5.32 -4 6 C-4.66 6 -5.32 6 -6 6 C-6.33 6.99 -6.66 7.98 -7 9 C-9.06640625 9.94921875 -9.06640625 9.94921875 -11.5625 10.6875 C-12.80193359 11.06455078 -12.80193359 11.06455078 -14.06640625 11.44921875 C-14.70449219 11.63097656 -15.34257813 11.81273438 -16 12 C-13.05028395 8.95810532 -10.01273229 6.03577359 -6.875 3.1875 C-6.21242188 2.58292969 -5.54984375 1.97835937 -4.8671875 1.35546875 C-3 0 -3 0 0 0 Z " fill="#844145" transform="translate(86,112)"/>
<path d="M0 0 C1.32 0.33 2.64 0.66 4 1 C3.34 1 2.68 1 2 1 C2.33 1.66 2.66 2.32 3 3 C4.32 3 5.64 3 7 3 C6.67 5.64 6.34 8.28 6 11 C5.01 11 4.02 11 3 11 C0.08966924 7.33513904 -0.32136655 4.60625394 0 0 Z " fill="#A54F53" transform="translate(33,57)"/>
<path d="M0 0 C1.57035335 2.49409061 2.0274945 3.70443416 1.75 6.6875 C1.5025 7.450625 1.255 8.21375 1 9 C0.01 9.495 0.01 9.495 -1 10 C-1.66 9.67 -2.32 9.34 -3 9 C-3 9.99 -3 10.98 -3 12 C-4.32 12 -5.64 12 -7 12 C-5.44298069 7.32894208 -2.91552627 3.91294315 0 0 Z " fill="#68696C" transform="translate(106,126)"/>
<path d="M0 0 C0.99 0 1.98 0 3 0 C3.66 1.98 4.32 3.96 5 6 C1.25 9 1.25 9 -1 9 C-1.66 8.34 -2.32 7.68 -3 7 C-2.625 4.875 -2.625 4.875 -2 3 C-1.34 3 -0.68 3 0 3 C0 2.01 0 1.02 0 0 Z " fill="#110E1C" transform="translate(157,86)"/>
<path d="M0 0 C2.475 0.99 2.475 0.99 5 2 C5 4.31 5 6.62 5 9 C6.32 9.33 7.64 9.66 9 10 C8.34 10 7.68 10 7 10 C7 10.66 7 11.32 7 12 C3.7558811 10.95724749 2.39805336 9.38759509 0.6875 6.5625 C-1 3 -1 3 0 0 Z " fill="#B75358" transform="translate(10,19)"/>
<path d="M0 0 C1.65 0.33 3.3 0.66 5 1 C4.5206753 5.31392226 3.2542015 7.16569547 0 10 C-2 7 -2 7 -1.625 4.8125 C-1.41875 4.214375 -1.2125 3.61625 -1 3 C-0.01 3 0.98 3 2 3 C1.34 2.67 0.68 2.34 0 2 C0 1.34 0 0.68 0 0 Z " fill="#312F34" transform="translate(188,58)"/>
<path d="M0 0 C0.33 0.66 0.66 1.32 1 2 C-1.475 1.505 -1.475 1.505 -4 1 C-4 1.66 -4 2.32 -4 3 C-11.12971149 4.25818438 -17.81949816 3.71148265 -25 3 C-25 2.67 -25 2.34 -25 2 C-24.04738281 1.93941406 -23.09476563 1.87882812 -22.11328125 1.81640625 C-20.23189453 1.69072266 -20.23189453 1.69072266 -18.3125 1.5625 C-17.07113281 1.48128906 -15.82976563 1.40007813 -14.55078125 1.31640625 C-9.57861147 0.87334162 -5.02485612 -0.11685712 0 0 Z " fill="#A96068" transform="translate(61,34)"/>
<path d="M0 0 C3.3 0 6.6 0 10 0 C9.67 1.32 9.34 2.64 9 4 C6.66666667 4 4.33333333 4 2 4 C1.01 4.33 0.02 4.66 -1 5 C-0.67 3.35 -0.34 1.7 0 0 Z " fill="#18171A" transform="translate(194,39)"/>
<path d="M0 0 C0.66 0.33 1.32 0.66 2 1 C1.34 1.66 0.68 2.32 0 3 C-0.99 3 -1.98 3 -3 3 C-3.33 3.99 -3.66 4.98 -4 6 C-4.99 6.33 -5.98 6.66 -7 7 C-8.20882096 9.00016466 -8.20882096 9.00016466 -9 11 C-9 10.34 -9 9.68 -9 9 C-9.99 8.67 -10.98 8.34 -12 8 C-10.5665848 6.84906075 -9.12811091 5.70441965 -7.6875 4.5625 C-6.48673828 3.60537109 -6.48673828 3.60537109 -5.26171875 2.62890625 C-3 1 -3 1 0 0 Z " fill="#807F85" transform="translate(135,21)"/>
<path d="M0 0 C3.375 -0.125 3.375 -0.125 7 0 C9 2 9 2 9.125 4.625 C9.08375 5.40875 9.0425 6.1925 9 7 C8.67 6.34 8.34 5.68 8 5 C6.35 5 4.7 5 3 5 C3 4.34 3 3.68 3 3 C2.01 2.67 1.02 2.34 0 2 C0 1.34 0 0.68 0 0 Z " fill="#921920" transform="translate(120,91)"/>
<path d="M0 0 C0.33 1.32 0.66 2.64 1 4 C2.98 3.34 4.96 2.68 7 2 C7.66 2.66 8.32 3.32 9 4 C7.68 5.32 6.36 6.64 5 8 C2.53199953 6.84826645 0.95216435 5.95216435 -1 4 C-0.625 1.875 -0.625 1.875 0 0 Z " fill="#5A5A62" transform="translate(155,92)"/>
<path d="M0 0 C1.875 0.5625 1.875 0.5625 4 2 C5.3125 5.5 5.3125 5.5 6 9 C5.67 9.66 5.34 10.32 5 11 C4.01 10.01 3.02 9.02 2 8 C1.01 8.66 0.02 9.32 -1 10 C-0.649375 9.278125 -0.29875 8.55625 0.0625 7.8125 C1.10409017 4.6877295 0.89096572 3.11838004 0 0 Z " fill="#B64549" transform="translate(143,92)"/>
<path d="M0 0 C4.82360189 -0.19294408 8.49646738 0.24252386 13 2 C10.55738878 2.81420374 8.52415891 3.29035772 6 3.625 C5.319375 3.72039062 4.63875 3.81578125 3.9375 3.9140625 C2 4 2 4 -1 3 C-0.67 2.01 -0.34 1.02 0 0 Z " fill="#881119" transform="translate(111,75)"/>
<path d="M0 0 C1.32 0.33 2.64 0.66 4 1 C2.71034824 2.37562854 1.37310707 3.70766393 0 5 C-0.66 5 -1.32 5 -2 5 C-1.67 6.32 -1.34 7.64 -1 9 C-2.65 9 -4.3 9 -6 9 C-6.33 8.34 -6.66 7.68 -7 7 C-5.47005208 5.76302083 -3.94010417 4.52604167 -2.41015625 3.2890625 C-0.86733563 2.0333609 -0.86733563 2.0333609 0 0 Z " fill="#8F0F14" transform="translate(45,148)"/>
<path d="M0 0 C0.66 0 1.32 0 2 0 C2 0.66 2 1.32 2 2 C2.66 2 3.32 2 4 2 C4 2.99 4 3.98 4 5 C1.08517222 5.80967438 -0.46113217 6.21845993 -3.3125 5.0625 C-3.869375 4.711875 -4.42625 4.36125 -5 4 C-4.34 3.34 -3.68 2.68 -3 2 C-2.34 2.33 -1.68 2.66 -1 3 C-0.67 2.01 -0.34 1.02 0 0 Z " fill="#0D0A17" transform="translate(141,129)"/>
<path d="M0 0 C0.99 0 1.98 0 3 0 C1.43358249 4.30764815 -0.68336156 8.06171464 -3 12 C-3.33 12 -3.66 12 -4 12 C-3.67 9.03 -3.34 6.06 -3 3 C-2.01 3 -1.02 3 0 3 C0 2.01 0 1.02 0 0 Z " fill="#9C575F" transform="translate(94,128)"/>
<path d="M0 0 C3.99452176 1.36955032 6.92159754 3.0926199 10 6 C10.8125 8.25 10.8125 8.25 11 10 C10.34 10 9.68 10 9 10 C8.67 9.34 8.34 8.68 8 8 C7.01 7.34 6.02 6.68 5 6 C3.8125 3.875 3.8125 3.875 3 2 C2.01 2.33 1.02 2.66 0 3 C0 2.01 0 1.02 0 0 Z " fill="#BC7073" transform="translate(129,78)"/>
<path d="M0 0 C3.37462715 0.54723683 5.08235 1.0549 8 3 C10.27912938 3.45394552 10.27912938 3.45394552 12.6875 3.625 C13.49574219 3.69976562 14.30398437 3.77453125 15.13671875 3.8515625 C15.75160156 3.90054688 16.36648437 3.94953125 17 4 C17 4.33 17 4.66 17 5 C6.31569507 5.76681614 6.31569507 5.76681614 3.08984375 3.88671875 C1.75 2.5 1.75 2.5 0 0 Z " fill="#A56970" transform="translate(61,107)"/>
<path d="M0 0 C0 1.98 0 3.96 0 6 C-2.97 5.01 -5.94 4.02 -9 3 C-6 1 -6 1 -4 1 C-2 0 -2 0 0 0 Z " fill="#6B6D71" transform="translate(136,66)"/>
<path d="M0 0 C2.50853762 2.18133706 3.61952612 3.67085353 4 7 C3.72949547 9.00946222 3.40632091 11.01354224 3 13 C0.20986594 10.20986594 0.39922779 7.85920197 0 4 C0 2.68 0 1.36 0 0 Z " fill="#913841" transform="translate(99,32)"/>
<path d="M0 0 C2 3 2 3 3 6 C0.69 6 -1.62 6 -4 6 C-4 5.01 -4 4.02 -4 3 C-2 1.3125 -2 1.3125 0 0 Z " fill="#0C0A15" transform="translate(142,152)"/>
<path d="M0 0 C0.33 0 0.66 0 1 0 C1 1.65 1 3.3 1 5 C1.99 4.67 2.98 4.34 4 4 C3.3125 5.9375 3.3125 5.9375 2 8 C-0.625 8.75 -0.625 8.75 -3 9 C-2.01 6.03 -1.02 3.06 0 0 Z " fill="#CC969A" transform="translate(144,111)"/>
<path d="M0 0 C1.258125 -0.04125 2.51625 -0.0825 3.8125 -0.125 C4.52019531 -0.14820312 5.22789062 -0.17140625 5.95703125 -0.1953125 C8 0 8 0 11 2 C10.030625 2.268125 9.06125 2.53625 8.0625 2.8125 C7.051875 3.204375 6.04125 3.59625 5 4 C4.67 4.99 4.34 5.98 4 7 C4 5.35 4 3.7 4 2 C2.68 1.34 1.36 0.68 0 0 Z " fill="#CB8B8B" transform="translate(132,90)"/>
<path d="M0 0 C2.31 0.33 4.62 0.66 7 1 C6.67 1.99 6.34 2.98 6 4 C7.32 4 8.64 4 10 4 C9.34 5.32 8.68 6.64 8 8 C7.67 7.01 7.34 6.02 7 5 C5.6846659 4.29848848 4.34882408 3.63474075 3 3 C1.25 1.375 1.25 1.375 0 0 Z " fill="#77747B" transform="translate(136,72)"/>
<path d="M0 0 C0.33 0 0.66 0 1 0 C1 1.65 1 3.3 1 5 C0.01 5.495 0.01 5.495 -1 6 C-1.65213292 8.02463255 -1.65213292 8.02463255 -2 10 C-3.32 9.67 -4.64 9.34 -6 9 C-4.6875 6.5 -4.6875 6.5 -3 4 C-2.01 4 -1.02 4 0 4 C0 2.68 0 1.36 0 0 Z " fill="#630407" transform="translate(87,140)"/>
<path d="M0 0 C0 0.33 0 0.66 0 1 C-0.928125 1.268125 -1.85625 1.53625 -2.8125 1.8125 C-5.97264607 2.72794661 -5.97264607 2.72794661 -7.625 4.6875 C-8.07875 5.120625 -8.5325 5.55375 -9 6 C-11.0859375 5.58203125 -11.0859375 5.58203125 -13 5 C-8.68660704 1.42677506 -5.86197356 -0.71487482 0 0 Z " fill="#7B7B80" transform="translate(129,113)"/>
<path d="M0 0 C0.66 0 1.32 0 2 0 C1.8125 1.875 1.8125 1.875 1 4 C-1.5625 5.25 -1.5625 5.25 -4 6 C-4.33 4.68 -4.66 3.36 -5 2 C-3.68 1.67 -2.36 1.34 -1 1 C-0.67 1.66 -0.34 2.32 0 3 C0 2.01 0 1.02 0 0 Z " fill="#454249" transform="translate(185,67)"/>
<path d="M0 0 C1.98 0 3.96 0 6 0 C5.01 0.495 5.01 0.495 4 1 C4 2.32 4 3.64 4 5 C5.32 5 6.64 5 8 5 C8 5.66 8 6.32 8 7 C5.6875 6.875 5.6875 6.875 3 6 C1.1875 2.9375 1.1875 2.9375 0 0 Z " fill="#75737A" transform="translate(134,153)"/>
<path d="M0 0 C1.14889133 3.93905597 1.52582695 7.93565958 2 12 C1.01 12 0.02 12 -1 12 C-1.02712066 10.56260487 -1.04645067 9.12506137 -1.0625 7.6875 C-1.07410156 6.88699219 -1.08570312 6.08648437 -1.09765625 5.26171875 C-1 3 -1 3 0 0 Z " fill="#757377" transform="translate(94,146)"/>
<path d="M0 0 C1.45922693 0.11409593 2.91740598 0.24165544 4.375 0.375 C5.59316406 0.47941406 5.59316406 0.47941406 6.8359375 0.5859375 C9 1 9 1 11 3 C7.75 3.75 7.75 3.75 4 4 C1.5625 2.0625 1.5625 2.0625 0 0 Z " fill="#8E3841" transform="translate(50,89)"/>
<path d="M0 0 C0.99 0 1.98 0 3 0 C3 0.66 3 1.32 3 2 C6.63 2 10.26 2 14 2 C14 2.33 14 2.66 14 3 C9.05 3 4.1 3 -1 3 C-0.67 2.01 -0.34 1.02 0 0 Z " fill="#77131B" transform="translate(45,70)"/>
<path d="M0 0 C0.66 0.66 1.32 1.32 2 2 C-0.25 4.5625 -0.25 4.5625 -3 7 C-4.32 6.67 -5.64 6.34 -7 6 C-4.69 4.02 -2.38 2.04 0 0 Z " fill="#7D121B" transform="translate(52,141)"/>
<path d="M0 0 C0.33 0.99 0.66 1.98 1 3 C0.030625 3.28875 -0.93875 3.5775 -1.9375 3.875 C-5.10664203 4.64214682 -5.10664203 4.64214682 -6 7 C-6.66 7 -7.32 7 -8 7 C-7.9375 5.1875 -7.9375 5.1875 -7 3 C-3.4375 1.25 -3.4375 1.25 0 0 Z " fill="#68030B" transform="translate(77,121)"/>
<path d="M0 0 C0.99 0.33 1.98 0.66 3 1 C3.1875 3.375 3.1875 3.375 3 6 C2.01 6.66 1.02 7.32 0 8 C-0.79953138 4.71303767 -1.09658936 3.28976808 0 0 Z " fill="#39383F" transform="translate(132,24)"/>
<path d="M0 0 C-0.66 0 -1.32 0 -2 0 C-2 0.66 -2 1.32 -2 2 C-4.8125 2.625 -4.8125 2.625 -8 3 C-8.99 2.34 -9.98 1.68 -11 1 C-3.375 -1.125 -3.375 -1.125 0 0 Z " fill="#80323A" transform="translate(78,155)"/>
<path d="M0 0 C0.99 0.33 1.98 0.66 3 1 C3 1.66 3 2.32 3 3 C3.66 3 4.32 3 5 3 C5 3.66 5 4.32 5 5 C3.02 5 1.04 5 -1 5 C-0.67 3.35 -0.34 1.7 0 0 Z " fill="#9F2029" transform="translate(135,85)"/>
<path d="M0 0 C2.475 0.99 2.475 0.99 5 2 C4.67 3.32 4.34 4.64 4 6 C3.01 6 2.02 6 1 6 C0.67 4.02 0.34 2.04 0 0 Z " fill="#AB1C22" transform="translate(14,22)"/>
<path d="M0 0 C0.66 0.99 1.32 1.98 2 3 C1.1875 4.9375 1.1875 4.9375 0 7 C-0.99 7.33 -1.98 7.66 -3 8 C-1.125 2.25 -1.125 2.25 0 0 Z " fill="#7D7A7F" transform="translate(98,138)"/>
<path d="M0 0 C0.66 0.33 1.32 0.66 2 1 C0.38731308 3.71224618 -1.24901874 6.37352812 -3 9 C-3.75 7.3125 -3.75 7.3125 -4 5 C-2.0625 2.25 -2.0625 2.25 0 0 Z " fill="#56565D" transform="translate(114,119)"/>
<path d="M0 0 C1.98 0.99 1.98 0.99 4 2 C4 3.65 4 5.3 4 7 C2 5.75 2 5.75 0 4 C0 2.68 0 1.36 0 0 Z " fill="#80353B" transform="translate(58,100)"/>
<path d="M0 0 C3.96 1.98 3.96 1.98 8 4 C7.67 4.99 7.34 5.98 7 7 C6.01 6.01 5.02 5.02 4 4 C3.01 5.485 3.01 5.485 2 7 C1.34 4.69 0.68 2.38 0 0 Z " fill="#C17479" transform="translate(127,90)"/>
<path d="M0 0 C0.99 0 1.98 0 3 0 C2.5020163 3.73487777 2.12508244 5.81237635 0 9 C0 6 0 3 0 0 Z " fill="#954851" transform="translate(101,58)"/>
<path d="M0 0 C1.32 0.33 2.64 0.66 4 1 C1.69 2.65 -0.62 4.3 -3 6 C-3 4.68 -3 3.36 -3 2 C-2.01 1.34 -1.02 0.68 0 0 Z " fill="#A35E63" transform="translate(111,110)"/>
<path d="M0 0 C2.375 0.3125 2.375 0.3125 5 1 C5.66 1.99 6.32 2.98 7 4 C4.03 3.505 4.03 3.505 1 3 C0.67 2.01 0.34 1.02 0 0 Z " fill="#AB4F56" transform="translate(127,86)"/>
<path d="M0 0 C0.66 0.66 1.32 1.32 2 2 C-1.63 1.67 -5.26 1.34 -9 1 C-4.84592218 -1.07703891 -4.1645833 -1.31513157 0 0 Z " fill="#99595D" transform="translate(83,19)"/>
<path d="M0 0 C1.98 0.495 1.98 0.495 4 1 C3.67 2.32 3.34 3.64 3 5 C1.68 4.67 0.36 4.34 -1 4 C-0.67 2.68 -0.34 1.36 0 0 Z " fill="#2D2B35" transform="translate(112,153)"/>
<path d="M0 0 C2.475 0.99 2.475 0.99 5 2 C3.35 3.32 1.7 4.64 0 6 C-0.38218767 4.34385343 -0.71395102 2.67542976 -1 1 C-0.67 0.67 -0.34 0.34 0 0 Z " fill="#575661" transform="translate(126,146)"/>
<path d="M0 0 C0 0.66 0 1.32 0 2 C-0.66 2 -1.32 2 -2 2 C-2 2.66 -2 3.32 -2 4 C-3.32 3.67 -4.64 3.34 -6 3 C-6 2.34 -6 1.68 -6 1 C-4 0 -4 0 0 0 Z " fill="#62060B" transform="translate(88,98)"/>
<path d="M0 0 C1.65 0.33 3.3 0.66 5 1 C5 1.99 5 2.98 5 4 C3 4 1 4 -1 4 C-0.67 2.68 -0.34 1.36 0 0 Z " fill="#121117" transform="translate(185,59)"/>
<path d="M0 0 C2.475 0.495 2.475 0.495 5 1 C4.67 2.65 4.34 4.3 4 6 C2.62437146 4.71034824 1.29233607 3.37310707 0 2 C0 1.34 0 0.68 0 0 Z " fill="#6D6D6F" transform="translate(188,58)"/>
<path d="M0 0 C1.485 0.99 1.485 0.99 3 2 C3.6875 5.625 3.6875 5.625 4 9 C1.47740939 7.02579865 1.0070192 6.03254358 0.3125 2.8125 C0.209375 1.884375 0.10625 0.95625 0 0 Z " fill="#B97278" transform="translate(22,41)"/>
</svg>
